<?xml version="1.0" standalone="no"?><!DOCTYPE svg PUBLIC "-//W3C//DTD SVG 1.1//EN" "http://www.w3.org/Graphics/SVG/1.1/DTD/svg11.dtd"><svg t="1767342370973" class="icon" viewBox="0 0 1024 1024" version="1.1" xmlns="http://www.w3.org/2000/svg" p-id="5365" data-darkreader-inline-fill="" xmlns:xlink="http://www.w3.org/1999/xlink" width="200" height="200"><path d="M623.304348 1017.639752c-38.161491 0-69.962733-31.801242-69.962733-69.962733V553.341615h394.335404c38.161491 0 69.962733 31.801242 69.962733 69.962733v318.012422c0 38.161491-31.801242 69.962733-69.962733 69.962733l-324.372671 6.360249z m-553.341615 0C31.801242 1017.639752 0 985.838509 0 947.677019v-318.012423c0-38.161491 31.801242-69.962733 69.962733-69.962733h394.335404V954.037267c0 38.161491-31.801242 69.962733-69.962733 69.962733H69.962733zM553.341615 235.329193c0-127.204969 101.763975-228.968944 228.968944-228.968945s228.968944 101.763975 235.329193 228.968945c0 127.204969-101.763975 235.329193-235.329193 235.329192-127.204969-6.360248-228.968944-108.124224-228.968944-235.329192zM69.962733 464.298137C31.801242 464.298137 0 432.496894 0 394.335404v-318.012423C0 31.801242 31.801242 0 69.962733 0h318.012422c38.161491 0 69.962733 31.801242 69.962733 69.962733v394.335404H69.962733z" fill="#333333" p-id="5366" data-darkreader-inline-fill="" style="--darkreader-inline-fill: var(--darkreader-background-333333, #050505);"></path></svg>