<?xml version="1.0" standalone="no"?><!DOCTYPE svg PUBLIC "-//W3C//DTD SVG 1.1//EN" "http://www.w3.org/Graphics/SVG/1.1/DTD/svg11.dtd"><svg t="1767534963460" class="icon" viewBox="0 0 1024 1024" version="1.1" xmlns="http://www.w3.org/2000/svg" p-id="9351" data-darkreader-inline-fill="" xmlns:xlink="http://www.w3.org/1999/xlink" width="200" height="200"><path d="M832 456.576A320 320 0 0 0 510.336 960H64a64 64 0 0 1-64-64V64a64 64 0 0 1 64-64h704a64 64 0 0 1 64 64v392.576z m-674.496-262.4c-16.512 0-29.504 14.144-29.504 32 0 17.792 12.992 32 29.504 32h411.2c16.448 0 29.504-14.208 29.504-32 0-17.856-13.056-32-29.504-32H157.504z m0 189.824C140.992 384 128 398.208 128 416c0 17.856 12.992 32 29.504 32h411.2c16.448 0 29.504-14.144 29.504-32 0-17.792-13.056-32-29.504-32H157.504z m2.56 256h171.008c17.6 0 32-14.4 32-32 0-17.536-14.4-32-32-32H160c-17.6 0-32 14.464-32 32 0 17.6 14.4 32 32 32z" fill="#007AFF" p-id="9352" data-darkreader-inline-fill="" style="--darkreader-inline-fill: var(--darkreader-background-007aff, #006de5);"></path><path d="M768 512c140.928 0 256 115.072 256 256 0 141.568-114.496 256-256 256-141.568 0-256-114.432-256-256 0-141.504 114.432-256 256-256z m-1.28 113.28c-21.376 0-32 7.488-32 22.656v156.48c0 15.104 10.624 22.656 32 22.656 21.312 0 32-7.488 32-22.656v-156.544c0-15.104-10.688-22.592-32-22.592z m-0.064 232.384c-21.248 0-32 10.688-32 32 0 21.376 10.752 32 32 32h0.192c21.248 0 31.872-10.624 31.872-32 0-21.312-10.624-32-31.872-32h-0.192z" fill="#55A6FF" p-id="9353" data-darkreader-inline-fill="" style="--darkreader-inline-fill: var(--darkreader-background-55a6ff, #001124);"></path></svg>