<?xml version="1.0" standalone="no"?><!DOCTYPE svg PUBLIC "-//W3C//DTD SVG 1.1//EN" "http://www.w3.org/Graphics/SVG/1.1/DTD/svg11.dtd"><svg t="1767361415429" class="icon" viewBox="0 0 1117 1024" version="1.1" xmlns="http://www.w3.org/2000/svg" p-id="7439" data-darkreader-inline-fill="" xmlns:xlink="http://www.w3.org/1999/xlink" width="218.1640625" height="200"><path d="M1105.296802 375.690055L588.433408 13.62677a56.006026 56.006026 0 0 0-13.62677-9.402471 36.110941 36.110941 0 0 0-47.421161 13.62677L14.065043 377.325267a37.064815 37.064815 0 0 0-5.178172 53.144404 37.473618 37.473618 0 0 0 51.100388 12.809164l55.869758-12.400361s-2.180283 377.461535-0.681339 545.070809A48.511302 48.511302 0 0 0 163.959516 1023.779246c169.108218 1.635212 463.310187-6.54085 800.163947-0.817606A35.020799 35.020799 0 0 0 1006.230183 981.127456V430.605939l51.509191 10.628881a38.154957 38.154957 0 0 0 28.343682 4.224298 37.609886 37.609886 0 0 0 22.892974-17.033462 39.108831 39.108831 0 0 0-3.679228-52.735601z m-271.717798 463.310187a29.161288 29.161288 0 0 1-25.345793 15.398251H355.960708a29.025021 29.025021 0 0 1-24.255651-43.878201c13.62677-26.844737 213.804025-385.365062 226.068118-407.304161a27.25354 27.25354 0 0 1 48.920105 0C623.86301 433.603828 822.813856 790.352673 832.352595 808.748812a28.752485 28.752485 0 0 1 1.226409 29.570092z" p-id="7440"></path><path d="M540.058374 726.715656h84.75851v84.622243H540.058374zM540.058374 515.228182h84.75851v169.244486H540.058374z" p-id="7441"></path></svg>