<?xml version="1.0" standalone="no"?><!DOCTYPE svg PUBLIC "-//W3C//DTD SVG 1.1//EN" "http://www.w3.org/Graphics/SVG/1.1/DTD/svg11.dtd"><svg t="1767204969304" class="icon" viewBox="0 0 1077 1024" version="1.1" xmlns="http://www.w3.org/2000/svg" p-id="5515" data-darkreader-inline-fill="" xmlns:xlink="http://www.w3.org/1999/xlink" width="210.3515625" height="200"><path d="M1045.557895 598.231579V592.842105L808.421053 485.052632V145.515789L538.947368 21.557895 269.473684 145.515789v323.368422L0 592.842105v312.589474L269.473684 1024l253.305263-113.178947 253.305264 113.178947 269.473684-123.957895v-301.810526z m-269.473684 91.621053l-177.852632-80.842106 177.852632-80.842105 177.852631 80.842105-177.852631 80.842106zM328.757895 215.578947l183.242105 80.842106v253.305263L328.757895 468.884211V215.578947zM754.526316 468.884211l-183.242105 80.842105V296.421053L754.526316 215.578947v253.305264z m-37.726316-301.810527l-172.463158 80.842105-177.852631-80.842105L538.947368 86.231579l177.852632 80.842105z m-264.084211 447.326316L269.473684 700.631579l-183.242105-80.842105L269.473684 533.557895l183.242105 80.842105z m-393.431578 53.894737l183.242105 80.842105v194.021053L59.284211 862.315789v-194.021052z m237.136842 280.252631V754.526316l183.242105-80.842105V862.315789l-183.242105 86.231579z m269.473684-285.642105l183.242105 80.842105v204.8L565.894737 862.315789v-199.410526z m420.378947 199.410526l-183.242105 80.842106v-204.8l183.242105-80.842106V862.315789z" fill="#5C490B" p-id="5516" data-darkreader-inline-fill="" style="--darkreader-inline-fill: var(--darkreader-background-5c490b, #524109);"></path></svg>