<?xml version="1.0" standalone="no"?><!DOCTYPE svg PUBLIC "-//W3C//DTD SVG 1.1//EN" "http://www.w3.org/Graphics/SVG/1.1/DTD/svg11.dtd"><svg t="1773200900806" class="icon" viewBox="0 0 1024 1024" version="1.1" xmlns="http://www.w3.org/2000/svg" p-id="5435" xmlns:xlink="http://www.w3.org/1999/xlink" width="225" height="225"><path d="M151.51 532.898A20.898 20.898 0 0 1 130.612 512V397.061a20.898 20.898 0 0 1 20.898-20.898h720.98a20.898 20.898 0 0 1 20.898 20.898v104.49a20.898 20.898 0 0 1-41.796 0v-83.592H172.408V512a20.898 20.898 0 0 1-20.898 20.898zM841.143 303.02H182.857a20.898 20.898 0 0 1-20.898-20.898V104.49a20.898 20.898 0 0 1 20.898-20.898h658.286a20.898 20.898 0 0 1 20.898 20.898v177.632a20.898 20.898 0 0 1-20.898 20.898z m-637.388-41.796h616.49V125.388h-616.49z" p-id="5436" fill="#2c2c2c"></path><path d="M715.755 167.184h20.898q20.898 0 20.898 20.898v20.898q0 20.898-20.898 20.898h-20.898q-20.898 0-20.898-20.898v-20.898q0-20.898 20.898-20.898zM517.224 532.898A20.898 20.898 0 0 1 496.327 512V282.122a20.898 20.898 0 0 1 41.795 0V512a20.898 20.898 0 0 1-20.898 20.898z m193.307-10.449a20.898 20.898 0 0 1-20.898-20.898v-94.04a20.898 20.898 0 0 1 41.796 0v94.04a20.898 20.898 0 0 1-20.898 20.898z m-376.164 417.96H62.694a20.898 20.898 0 0 1-20.898-20.899V512a20.898 20.898 0 0 1 20.898-20.898h271.673A20.898 20.898 0 0 1 355.265 512v407.51a20.898 20.898 0 0 1-20.898 20.898zM83.592 898.611h229.877V532.898H83.592z" p-id="5437" fill="#2c2c2c"></path><path d="M762.776 940.408h-114.94a20.898 20.898 0 0 1-20.897-20.898V512a20.898 20.898 0 0 1 20.898-20.898h114.939A20.898 20.898 0 0 1 783.673 512v407.51a20.898 20.898 0 0 1-20.897 20.898z m-94.041-41.796h73.143V532.898h-73.143z m-104.49 41.796H417.959a20.898 20.898 0 0 1-20.898-20.898V512a20.898 20.898 0 0 1 20.898-20.898h146.286A20.898 20.898 0 0 1 585.143 512v407.51a20.898 20.898 0 0 1-20.898 20.898z m-125.388-41.796h104.49V532.898h-104.49z m522.45 41.796h-114.94a20.898 20.898 0 0 1-20.898-20.898V512a20.898 20.898 0 0 1 20.898-20.898h114.94A20.898 20.898 0 0 1 982.203 512v407.51a20.898 20.898 0 0 1-20.898 20.898z m-94.042-41.796h73.143V532.898h-73.143z m-668.734 41.796a20.898 20.898 0 0 1-20.898-20.898v-52.245a20.898 20.898 0 0 1 41.796 0v52.245a20.898 20.898 0 0 1-20.898 20.898z" p-id="5438" fill="#2c2c2c"></path><path d="M491.102 940.408a20.898 20.898 0 0 1-20.898-20.898v-52.245a20.898 20.898 0 0 1 41.796 0v52.245a20.898 20.898 0 0 1-20.898 20.898z" p-id="5439" fill="#2c2c2c"></path></svg>