<?xml version="1.0" standalone="no"?><!DOCTYPE svg PUBLIC "-//W3C//DTD SVG 1.1//EN" "http://www.w3.org/Graphics/SVG/1.1/DTD/svg11.dtd"><svg t="1767534875404" class="icon" viewBox="0 0 1059 1024" version="1.1" xmlns="http://www.w3.org/2000/svg" p-id="8327" data-darkreader-inline-fill="" xmlns:xlink="http://www.w3.org/1999/xlink" width="206.8359375" height="200"><path d="M952.75 317.584h-69.04L607.552 105.493a69.592 69.592 0 0 0 9.39-34.796 70.697 70.697 0 1 0-141.394 0 71.25 71.25 0 0 0 0 17.122L176.742 317.584h-70.697A106.045 106.045 0 0 0 0 423.629v494.326A106.045 106.045 0 0 0 106.045 1024h846.706a106.045 106.045 0 0 0 106.045-106.045V423.629a106.045 106.045 0 0 0-106.045-106.045z m-465.052-207.12a69.592 69.592 0 0 0 101.074 13.256l258.486 192.207h-635.72z m-243.02 690.951a133.661 133.661 0 0 1-78.982 20.988 172.876 172.876 0 0 1-78.43-15.464V747.84a116.54 116.54 0 0 0 76.22 27.616 64.621 64.621 0 0 0 36.454-8.284 24.854 24.854 0 0 0 12.15-21.54 30.93 30.93 0 0 0-9.389-21.541 182.818 182.818 0 0 0-51.366-27.064q-65.173-27.616-65.173-80.639a70.145 70.145 0 0 1 29.825-60.202 130.347 130.347 0 0 1 78.43-21.54 192.76 192.76 0 0 1 68.487 10.493v55.232a113.778 113.778 0 0 0-65.726-18.779 66.83 66.83 0 0 0-34.796 7.733 24.302 24.302 0 0 0-13.256 21.54 27.616 27.616 0 0 0 8.837 19.884 165.696 165.696 0 0 0 44.186 24.302 145.26 145.26 0 0 1 55.232 37.557 73.458 73.458 0 0 1 15.465 46.948 71.25 71.25 0 0 1-28.169 61.86z m252.41 16.57l-20.989-63.517H374.472l-20.435 63.517h-64.622l101.627-276.16h70.145l99.97 276.16z m262.903 0H594.296v-276.16h59.098V771.59H757.23z m202.702 0H796.997v-276.16H954.96v48.604h-98.865v65.726h91.685v48.052h-91.685v67.383h105.493z" fill="#0CB05B" p-id="8328" data-darkreader-inline-fill="" style="--darkreader-inline-fill: var(--darkreader-background-0cb05b, #0b9e51);"></path><path d="M425.286 587.668a100.522 100.522 0 0 1-4.971 23.75l-33.691 97.208h74.563l-31.483-96.656a104.388 104.388 0 0 1-4.418-24.302z" fill="#0CB05B" p-id="8329" data-darkreader-inline-fill="" style="--darkreader-inline-fill: var(--darkreader-text-0cb05b, #0b9e51);"></path></svg>